<svg width="30" height="24" viewBox="0 0 30 24" fill="none" xmlns="http://www.w3.org/2000/svg">
<path d="M2.35547 0.333984H27.6445C28.9453 0.333984 30 1.38867 30 2.68945C30 3.99023 28.9453 5.04492 27.6445 5.04492H2.35547C1.05469 5.04492 0 3.99023 0 2.68945C0 1.38867 1.05469 0.333984 2.35547 0.333984ZM2.35547 9.64453H27.6445C28.9453 9.64453 30 10.6992 30 12C30 13.3008 28.9453 14.3555 27.6445 14.3555H2.35547C1.05469 14.3555 0 13.3008 0 12C0 10.6992 1.05469 9.64453 2.35547 9.64453ZM2.35547 18.9551H27.6445C28.9453 18.9551 30 20.0098 30 21.3105C30 22.6113 28.9453 23.666 27.6445 23.666H2.35547C1.05469 23.666 0 22.6113 0 21.3105C0 20.0098 1.05469 18.9551 2.35547 18.9551Z" fill="#09A494"/>
</svg>
